<svg width="121" height="36" viewBox="0 0 121 36" fill="none" xmlns="http://www.w3.org/2000/svg">
<rect width="121" height="36" rx="10" fill="#0029FF"/>
<path d="M27.6478 22.084C27.0878 22.084 26.5838 21.988 26.1358 21.796C25.6878 21.596 25.3358 21.316 25.0798 20.956C24.8238 20.596 24.6958 20.176 24.6958 19.696H26.1598C26.1918 20.056 26.3318 20.352 26.5798 20.584C26.8358 20.816 27.1918 20.932 27.6478 20.932C28.1198 20.932 28.4878 20.82 28.7518 20.596C29.0158 20.364 29.1478 20.068 29.1478 19.708C29.1478 19.428 29.0638 19.2 28.8958 19.024C28.7358 18.848 28.5318 18.712 28.2838 18.616C28.0438 18.52 27.7078 18.416 27.2758 18.304C26.7318 18.16 26.2878 18.016 25.9438 17.872C25.6078 17.72 25.3198 17.488 25.0798 17.176C24.8398 16.864 24.7198 16.448 24.7198 15.928C24.7198 15.448 24.8398 15.028 25.0798 14.668C25.3198 14.308 25.6558 14.032 26.0878 13.84C26.5198 13.648 27.0198 13.552 27.5878 13.552C28.3958 13.552 29.0558 13.756 29.5678 14.164C30.0878 14.564 30.3758 15.116 30.4318 15.82H28.9198C28.8958 15.516 28.7518 15.256 28.4878 15.04C28.2238 14.824 27.8758 14.716 27.4438 14.716C27.0518 14.716 26.7318 14.816 26.4838 15.016C26.2358 15.216 26.1118 15.504 26.1118 15.88C26.1118 16.136 26.1878 16.348 26.3398 16.516C26.4998 16.676 26.6998 16.804 26.9398 16.9C27.1798 16.996 27.5078 17.1 27.9238 17.212C28.4758 17.364 28.9238 17.516 29.2678 17.668C29.6198 17.82 29.9158 18.056 30.1558 18.376C30.4038 18.688 30.5278 19.108 30.5278 19.636C30.5278 20.06 30.4118 20.46 30.1798 20.836C29.9558 21.212 29.6238 21.516 29.1838 21.748C28.7518 21.972 28.2398 22.084 27.6478 22.084ZM38.13 15.388V22H36.762V21.22C36.546 21.492 36.262 21.708 35.91 21.868C35.566 22.02 35.198 22.096 34.806 22.096C34.286 22.096 33.818 21.988 33.402 21.772C32.994 21.556 32.67 21.236 32.43 20.812C32.198 20.388 32.082 19.876 32.082 19.276V15.388H33.438V19.072C33.438 19.664 33.586 20.12 33.882 20.44C34.178 20.752 34.582 20.908 35.094 20.908C35.606 20.908 36.01 20.752 36.306 20.44C36.61 20.12 36.762 19.664 36.762 19.072V15.388H38.13ZM41.303 16.372C41.535 16.052 41.851 15.792 42.251 15.592C42.659 15.384 43.111 15.28 43.607 15.28C44.191 15.28 44.719 15.42 45.191 15.7C45.663 15.98 46.035 16.38 46.307 16.9C46.579 17.412 46.715 18 46.715 18.664C46.715 19.328 46.579 19.924 46.307 20.452C46.035 20.972 45.659 21.38 45.179 21.676C44.707 21.964 44.183 22.108 43.607 22.108C43.095 22.108 42.639 22.008 42.239 21.808C41.847 21.608 41.535 21.352 41.303 21.04V22H39.935V13.12H41.303V16.372ZM45.323 18.664C45.323 18.208 45.227 17.816 45.035 17.488C44.851 17.152 44.603 16.9 44.291 16.732C43.987 16.556 43.659 16.468 43.307 16.468C42.963 16.468 42.635 16.556 42.323 16.732C42.019 16.908 41.771 17.164 41.579 17.5C41.395 17.836 41.303 18.232 41.303 18.688C41.303 19.144 41.395 19.544 41.579 19.888C41.771 20.224 42.019 20.48 42.323 20.656C42.635 20.832 42.963 20.92 43.307 20.92C43.659 20.92 43.987 20.832 44.291 20.656C44.603 20.472 44.851 20.208 45.035 19.864C45.227 19.52 45.323 19.12 45.323 18.664ZM56.0718 15.28C56.5918 15.28 57.0558 15.388 57.4638 15.604C57.8798 15.82 58.2038 16.14 58.4358 16.564C58.6758 16.988 58.7958 17.5 58.7958 18.1V22H57.4398V18.304C57.4398 17.712 57.2918 17.26 56.9958 16.948C56.6998 16.628 56.2958 16.468 55.7838 16.468C55.2718 16.468 54.8638 16.628 54.5598 16.948C54.2638 17.26 54.1158 17.712 54.1158 18.304V22H52.7598V18.304C52.7598 17.712 52.6118 17.26 52.3158 16.948C52.0198 16.628 51.6158 16.468 51.1038 16.468C50.5918 16.468 50.1838 16.628 49.8798 16.948C49.5838 17.26 49.4358 17.712 49.4358 18.304V22H48.0678V15.388H49.4358V16.144C49.6598 15.872 49.9438 15.66 50.2878 15.508C50.6318 15.356 50.9998 15.28 51.3918 15.28C51.9198 15.28 52.3918 15.392 52.8078 15.616C53.2238 15.84 53.5438 16.164 53.7678 16.588C53.9678 16.188 54.2798 15.872 54.7038 15.64C55.1278 15.4 55.5838 15.28 56.0718 15.28ZM61.2325 14.512C60.9845 14.512 60.7765 14.428 60.6085 14.26C60.4405 14.092 60.3565 13.884 60.3565 13.636C60.3565 13.388 60.4405 13.18 60.6085 13.012C60.7765 12.844 60.9845 12.76 61.2325 12.76C61.4725 12.76 61.6765 12.844 61.8445 13.012C62.0125 13.18 62.0965 13.388 62.0965 13.636C62.0965 13.884 62.0125 14.092 61.8445 14.26C61.6765 14.428 61.4725 14.512 61.2325 14.512ZM61.9045 15.388V22H60.5365V15.388H61.9045ZM65.2966 16.504V20.164C65.2966 20.412 65.3526 20.592 65.4646 20.704C65.5846 20.808 65.7846 20.86 66.0646 20.86H66.9046V22H65.8246C65.2086 22 64.7366 21.856 64.4086 21.568C64.0806 21.28 63.9166 20.812 63.9166 20.164V16.504H63.1366V15.388H63.9166V13.744H65.2966V15.388H66.9046V16.504H65.2966ZM72.8786 16.504V20.164C72.8786 20.412 72.9346 20.592 73.0466 20.704C73.1666 20.808 73.3666 20.86 73.6466 20.86H74.4866V22H73.4066C72.7906 22 72.3186 21.856 71.9906 21.568C71.6626 21.28 71.4986 20.812 71.4986 20.164V16.504H70.7186V15.388H71.4986V13.744H72.8786V15.388H74.4866V16.504H72.8786ZM75.2915 18.664C75.2915 18 75.4275 17.412 75.6995 16.9C75.9795 16.388 76.3555 15.992 76.8275 15.712C77.3075 15.424 77.8355 15.28 78.4115 15.28C78.9315 15.28 79.3835 15.384 79.7675 15.592C80.1595 15.792 80.4715 16.044 80.7035 16.348V15.388H82.0835V22H80.7035V21.016C80.4715 21.328 80.1555 21.588 79.7555 21.796C79.3555 22.004 78.8995 22.108 78.3875 22.108C77.8195 22.108 77.2995 21.964 76.8275 21.676C76.3555 21.38 75.9795 20.972 75.6995 20.452C75.4275 19.924 75.2915 19.328 75.2915 18.664ZM80.7035 18.688C80.7035 18.232 80.6075 17.836 80.4155 17.5C80.2315 17.164 79.9875 16.908 79.6835 16.732C79.3795 16.556 79.0515 16.468 78.6995 16.468C78.3475 16.468 78.0195 16.556 77.7155 16.732C77.4115 16.9 77.1635 17.152 76.9715 17.488C76.7875 17.816 76.6955 18.208 76.6955 18.664C76.6955 19.12 76.7875 19.52 76.9715 19.864C77.1635 20.208 77.4115 20.472 77.7155 20.656C78.0275 20.832 78.3555 20.92 78.6995 20.92C79.0515 20.92 79.3795 20.832 79.6835 20.656C79.9875 20.48 80.2315 20.224 80.4155 19.888C80.6075 19.544 80.7035 19.144 80.7035 18.688ZM86.2803 22.108C85.7603 22.108 85.2923 22.016 84.8763 21.832C84.4683 21.64 84.1443 21.384 83.9043 21.064C83.6643 20.736 83.5363 20.372 83.5203 19.972H84.9363C84.9603 20.252 85.0923 20.488 85.3323 20.68C85.5803 20.864 85.8883 20.956 86.2563 20.956C86.6403 20.956 86.9363 20.884 87.1443 20.74C87.3603 20.588 87.4683 20.396 87.4683 20.164C87.4683 19.916 87.3483 19.732 87.1083 19.612C86.8763 19.492 86.5043 19.36 85.9923 19.216C85.4963 19.08 85.0923 18.948 84.7803 18.82C84.4683 18.692 84.1963 18.496 83.9643 18.232C83.7403 17.968 83.6283 17.62 83.6283 17.188C83.6283 16.836 83.7323 16.516 83.9403 16.228C84.1483 15.932 84.4443 15.7 84.8283 15.532C85.2203 15.364 85.6683 15.28 86.1723 15.28C86.9243 15.28 87.5283 15.472 87.9843 15.856C88.4483 16.232 88.6963 16.748 88.7283 17.404H87.3603C87.3363 17.108 87.2163 16.872 87.0003 16.696C86.7843 16.52 86.4923 16.432 86.1243 16.432C85.7643 16.432 85.4883 16.5 85.2963 16.636C85.1043 16.772 85.0083 16.952 85.0083 17.176C85.0083 17.352 85.0723 17.5 85.2003 17.62C85.3283 17.74 85.4843 17.836 85.6683 17.908C85.8523 17.972 86.1243 18.056 86.4843 18.16C86.9643 18.288 87.3563 18.42 87.6603 18.556C87.9723 18.684 88.2403 18.876 88.4643 19.132C88.6883 19.388 88.8043 19.728 88.8123 20.152C88.8123 20.528 88.7083 20.864 88.5003 21.16C88.2923 21.456 87.9963 21.688 87.6123 21.856C87.2363 22.024 86.7923 22.108 86.2803 22.108ZM92.9064 18.7L95.9544 22H94.1064L91.6584 19.156V22H90.2904V13.12H91.6584V18.28L94.0584 15.388H95.9544L92.9064 18.7Z" fill="white"/>
</svg>
