<svg width="97" height="36" viewBox="0 0 97 36" fill="none" xmlns="http://www.w3.org/2000/svg">
<rect width="97" height="36" rx="10" fill="#0029FF"/>
<path d="M18.5908 17.573V19.2722H8.84473V17.573H18.5908ZM14.626 13.4226V23.7742H12.8193V13.4226H14.626Z" fill="white"/>
<path d="M31.3555 19.6023C31.3555 19.4265 31.3281 19.2703 31.2734 19.1335C31.2227 18.9968 31.1309 18.8718 30.998 18.7585C30.8652 18.6453 30.6777 18.5359 30.4355 18.4304C30.1973 18.321 29.8926 18.2097 29.5215 18.0964C29.1152 17.9714 28.7402 17.8328 28.3965 17.6804C28.0566 17.5242 27.7598 17.3445 27.5059 17.1414C27.252 16.9343 27.0547 16.698 26.9141 16.4324C26.7734 16.1628 26.7031 15.8523 26.7031 15.5007C26.7031 15.1531 26.7754 14.8367 26.9199 14.5515C27.0684 14.2664 27.2773 14.0203 27.5469 13.8132C27.8203 13.6023 28.1426 13.4402 28.5137 13.3269C28.8848 13.2097 29.2949 13.1511 29.7441 13.1511C30.377 13.1511 30.9219 13.2683 31.3789 13.5027C31.8398 13.7371 32.1934 14.0515 32.4395 14.446C32.6895 14.8406 32.8145 15.2761 32.8145 15.7527H31.3555C31.3555 15.4714 31.2949 15.2234 31.1738 15.0085C31.0566 14.7898 30.877 14.6179 30.6348 14.4929C30.3965 14.3679 30.0938 14.3054 29.7266 14.3054C29.3789 14.3054 29.0898 14.3582 28.8594 14.4636C28.6289 14.5691 28.457 14.7117 28.3438 14.8914C28.2305 15.071 28.1738 15.2742 28.1738 15.5007C28.1738 15.6609 28.2109 15.8074 28.2852 15.9402C28.3594 16.0691 28.4727 16.1902 28.625 16.3035C28.7773 16.4128 28.9688 16.5164 29.1992 16.614C29.4297 16.7117 29.7012 16.8054 30.0137 16.8953C30.4863 17.0359 30.8984 17.1921 31.25 17.364C31.6016 17.532 31.8945 17.7234 32.1289 17.9382C32.3633 18.1531 32.5391 18.3972 32.6562 18.6707C32.7734 18.9402 32.832 19.2468 32.832 19.5906C32.832 19.95 32.7598 20.2742 32.6152 20.5632C32.4707 20.8484 32.2637 21.0925 31.9941 21.2957C31.7285 21.4949 31.4082 21.6492 31.0332 21.7585C30.6621 21.864 30.248 21.9167 29.791 21.9167C29.3809 21.9167 28.9766 21.8621 28.5781 21.7527C28.1836 21.6433 27.8242 21.4773 27.5 21.2546C27.1758 21.0281 26.918 20.7468 26.7266 20.4109C26.5352 20.071 26.4395 19.6746 26.4395 19.2214H27.9102C27.9102 19.4988 27.957 19.7351 28.0508 19.9304C28.1484 20.1257 28.2832 20.2859 28.4551 20.4109C28.627 20.532 28.8262 20.6218 29.0527 20.6804C29.2832 20.739 29.5293 20.7683 29.791 20.7683C30.1348 20.7683 30.4219 20.7195 30.6523 20.6218C30.8867 20.5242 31.0625 20.3875 31.1797 20.2117C31.2969 20.0359 31.3555 19.8328 31.3555 19.6023ZM37.8066 20.3054V15.4597H39.2246V21.7996H37.8887L37.8066 20.3054ZM38.0059 18.9871L38.4805 18.9753C38.4805 19.4011 38.4336 19.7937 38.3398 20.1531C38.2461 20.5085 38.1016 20.8191 37.9062 21.0847C37.7109 21.3464 37.4609 21.5515 37.1562 21.7C36.8516 21.8445 36.4863 21.9167 36.0605 21.9167C35.752 21.9167 35.4688 21.8718 35.2109 21.782C34.9531 21.6921 34.7305 21.5535 34.543 21.366C34.3594 21.1785 34.2168 20.9343 34.1152 20.6335C34.0137 20.3328 33.9629 19.9734 33.9629 19.5554V15.4597H35.375V19.5671C35.375 19.7976 35.4023 19.991 35.457 20.1472C35.5117 20.2996 35.5859 20.4226 35.6797 20.5164C35.7734 20.6101 35.8828 20.6765 36.0078 20.7156C36.1328 20.7546 36.2656 20.7742 36.4062 20.7742C36.8086 20.7742 37.125 20.696 37.3555 20.5398C37.5898 20.3796 37.7559 20.1648 37.8535 19.8953C37.9551 19.6257 38.0059 19.323 38.0059 18.9871ZM40.6777 12.7996H42.0898V20.446L41.9551 21.7996H40.6777V12.7996ZM46.2266 18.571V18.6941C46.2266 19.1628 46.1738 19.5945 46.0684 19.989C45.9668 20.3796 45.8105 20.7195 45.5996 21.0085C45.3926 21.2976 45.1348 21.5222 44.8262 21.6824C44.5215 21.8386 44.168 21.9167 43.7656 21.9167C43.3711 21.9167 43.0273 21.8425 42.7344 21.6941C42.4414 21.5457 42.1953 21.3347 41.9961 21.0613C41.8008 20.7878 41.6426 20.4617 41.5215 20.0828C41.4004 19.7039 41.3145 19.2859 41.2637 18.8289V18.4363C41.3145 17.9753 41.4004 17.5574 41.5215 17.1824C41.6426 16.8035 41.8008 16.4773 41.9961 16.2039C42.1953 15.9265 42.4395 15.7136 42.7285 15.5652C43.0215 15.4167 43.3633 15.3425 43.7539 15.3425C44.1602 15.3425 44.5176 15.4207 44.8262 15.5769C45.1387 15.7332 45.3984 15.9558 45.6055 16.2449C45.8125 16.53 45.9668 16.8699 46.0684 17.2644C46.1738 17.6589 46.2266 18.0945 46.2266 18.571ZM44.8145 18.6941V18.571C44.8145 18.2859 44.791 18.0183 44.7441 17.7683C44.6973 17.5144 44.6191 17.2917 44.5098 17.1003C44.4043 16.9089 44.2598 16.7585 44.0762 16.6492C43.8965 16.5359 43.6719 16.4792 43.4023 16.4792C43.1523 16.4792 42.9375 16.5222 42.7578 16.6082C42.5781 16.6941 42.4277 16.8113 42.3066 16.9597C42.1855 17.1082 42.0898 17.28 42.0195 17.4753C41.9531 17.6707 41.9082 17.8816 41.8848 18.1082V19.1687C41.9199 19.4617 41.9941 19.7312 42.1074 19.9773C42.2246 20.2195 42.3887 20.4148 42.5996 20.5632C42.8105 20.7078 43.082 20.78 43.4141 20.78C43.6758 20.78 43.8965 20.7273 44.0762 20.6218C44.2559 20.5164 44.3984 20.3699 44.5039 20.1824C44.6133 19.991 44.6914 19.7683 44.7383 19.5144C44.7891 19.2605 44.8145 18.9871 44.8145 18.6941ZM50.2637 17.5925V18.7175H47.1641V17.5925H50.2637ZM54.4062 15.4597V16.491H50.832V15.4597H54.4062ZM51.8633 13.907H53.2754V20.0476C53.2754 20.2429 53.3027 20.3933 53.3574 20.4988C53.416 20.6003 53.4961 20.6687 53.5977 20.7039C53.6992 20.739 53.8184 20.7566 53.9551 20.7566C54.0527 20.7566 54.1465 20.7507 54.2363 20.739C54.3262 20.7273 54.3984 20.7156 54.4531 20.7039L54.459 21.782C54.3418 21.8171 54.2051 21.8484 54.0488 21.8757C53.8965 21.9031 53.7207 21.9167 53.5215 21.9167C53.1973 21.9167 52.9102 21.8601 52.6602 21.7468C52.4102 21.6296 52.2148 21.4402 52.0742 21.1785C51.9336 20.9167 51.8633 20.5691 51.8633 20.1355V13.907ZM56.8906 12.7996V21.7996H55.4844V12.7996H56.8906ZM56.6445 18.3953L56.1875 18.3894C56.1914 17.9519 56.252 17.5476 56.3691 17.1765C56.4902 16.8054 56.6582 16.4832 56.873 16.2097C57.0918 15.9324 57.3535 15.7195 57.6582 15.571C57.9629 15.4187 58.3008 15.3425 58.6719 15.3425C58.9844 15.3425 59.2656 15.3855 59.5156 15.4714C59.7695 15.5574 59.9883 15.696 60.1719 15.8875C60.3555 16.075 60.4941 16.321 60.5879 16.6257C60.6855 16.9265 60.7344 17.2937 60.7344 17.7273V21.7996H59.3164V17.7156C59.3164 17.4109 59.2715 17.1687 59.1816 16.989C59.0957 16.8093 58.9688 16.6804 58.8008 16.6023C58.6328 16.5203 58.4277 16.4792 58.1855 16.4792C57.9316 16.4792 57.707 16.53 57.5117 16.6316C57.3203 16.7332 57.1602 16.8718 57.0312 17.0476C56.9023 17.2234 56.8047 17.4265 56.7383 17.657C56.6758 17.8875 56.6445 18.1335 56.6445 18.3953ZM63.582 16.6667V21.7996H62.1699V15.4597H63.5176L63.582 16.6667ZM65.5215 15.4187L65.5098 16.7312C65.4238 16.7156 65.3301 16.7039 65.2285 16.696C65.1309 16.6882 65.0332 16.6843 64.9355 16.6843C64.6934 16.6843 64.4805 16.7195 64.2969 16.7898C64.1133 16.8562 63.959 16.9539 63.834 17.0828C63.7129 17.2078 63.6191 17.3601 63.5527 17.5398C63.4863 17.7195 63.4473 17.9207 63.4355 18.1433L63.1133 18.1667C63.1133 17.7683 63.1523 17.3992 63.2305 17.0593C63.3086 16.7195 63.4258 16.4207 63.582 16.1628C63.7422 15.905 63.9414 15.7039 64.1797 15.5593C64.4219 15.4148 64.7012 15.3425 65.0176 15.3425C65.1035 15.3425 65.1953 15.3503 65.293 15.366C65.3945 15.3816 65.4707 15.3992 65.5215 15.4187ZM69.084 21.9167C68.6152 21.9167 68.1914 21.8406 67.8125 21.6882C67.4375 21.532 67.1172 21.3152 66.8516 21.0378C66.5898 20.7605 66.3887 20.4343 66.248 20.0593C66.1074 19.6843 66.0371 19.28 66.0371 18.8464V18.6121C66.0371 18.116 66.1094 17.6667 66.2539 17.2644C66.3984 16.8621 66.5996 16.5183 66.8574 16.2332C67.1152 15.9441 67.4199 15.7234 67.7715 15.571C68.123 15.4187 68.5039 15.3425 68.9141 15.3425C69.3672 15.3425 69.7637 15.4187 70.1035 15.571C70.4434 15.7234 70.7246 15.9382 70.9473 16.2156C71.1738 16.489 71.3418 16.8152 71.4512 17.1941C71.5645 17.573 71.6211 17.991 71.6211 18.448V19.0515H66.7227V18.0378H70.2266V17.9265C70.2188 17.6726 70.168 17.4343 70.0742 17.2117C69.9844 16.989 69.8457 16.8093 69.6582 16.6726C69.4707 16.5359 69.2207 16.4675 68.9082 16.4675C68.6738 16.4675 68.4648 16.5183 68.2812 16.6199C68.1016 16.7175 67.9512 16.8601 67.8301 17.0476C67.709 17.2351 67.6152 17.4617 67.5488 17.7273C67.4863 17.989 67.4551 18.2839 67.4551 18.6121V18.8464C67.4551 19.1238 67.4922 19.3816 67.5664 19.6199C67.6445 19.8542 67.7578 20.0593 67.9062 20.2351C68.0547 20.4109 68.2344 20.5496 68.4453 20.6511C68.6562 20.7488 68.8965 20.7976 69.166 20.7976C69.5059 20.7976 69.8086 20.7292 70.0742 20.5925C70.3398 20.4558 70.5703 20.2625 70.7656 20.0125L71.5098 20.7332C71.373 20.9324 71.1953 21.1238 70.9766 21.3074C70.7578 21.4871 70.4902 21.6335 70.1738 21.7468C69.8613 21.8601 69.498 21.9167 69.084 21.9167ZM76.2969 20.5281V17.5046C76.2969 17.2781 76.2559 17.0828 76.1738 16.9187C76.0918 16.7546 75.9668 16.6277 75.7988 16.5378C75.6348 16.448 75.4277 16.4031 75.1777 16.4031C74.9473 16.4031 74.748 16.4421 74.5801 16.5203C74.4121 16.5984 74.2812 16.7039 74.1875 16.8367C74.0938 16.9695 74.0469 17.1199 74.0469 17.2878H72.6406C72.6406 17.0378 72.7012 16.7957 72.8223 16.5613C72.9434 16.3269 73.1191 16.1179 73.3496 15.9343C73.5801 15.7507 73.8555 15.6062 74.1758 15.5007C74.4961 15.3953 74.8555 15.3425 75.2539 15.3425C75.7305 15.3425 76.1523 15.4226 76.5195 15.5828C76.8906 15.7429 77.1816 15.9851 77.3926 16.3093C77.6074 16.6296 77.7148 17.032 77.7148 17.5164V20.3347C77.7148 20.6238 77.7344 20.8835 77.7734 21.114C77.8164 21.3406 77.877 21.5378 77.9551 21.7058V21.7996H76.5078C76.4414 21.6472 76.3887 21.4539 76.3496 21.2195C76.3145 20.9812 76.2969 20.7507 76.2969 20.5281ZM76.502 17.9441L76.5137 18.8171H75.5C75.2383 18.8171 75.0078 18.8425 74.8086 18.8933C74.6094 18.9402 74.4434 19.0105 74.3105 19.1042C74.1777 19.198 74.0781 19.3113 74.0117 19.4441C73.9453 19.5769 73.9121 19.7273 73.9121 19.8953C73.9121 20.0632 73.9512 20.2175 74.0293 20.3582C74.1074 20.4949 74.2207 20.6023 74.3691 20.6804C74.5215 20.7585 74.7051 20.7976 74.9199 20.7976C75.209 20.7976 75.4609 20.739 75.6758 20.6218C75.8945 20.5007 76.0664 20.3542 76.1914 20.1824C76.3164 20.0066 76.3828 19.8406 76.3906 19.6843L76.8477 20.3113C76.8008 20.4714 76.7207 20.6433 76.6074 20.8269C76.4941 21.0105 76.3457 21.1863 76.1621 21.3542C75.9824 21.5183 75.7656 21.6531 75.5117 21.7585C75.2617 21.864 74.9727 21.9167 74.6445 21.9167C74.2305 21.9167 73.8613 21.8347 73.5371 21.6707C73.2129 21.5027 72.959 21.2781 72.7754 20.9968C72.5918 20.7117 72.5 20.3894 72.5 20.03C72.5 19.6941 72.5625 19.3972 72.6875 19.1394C72.8164 18.8777 73.0039 18.6589 73.25 18.4832C73.5 18.3074 73.8047 18.1746 74.1641 18.0847C74.5234 17.991 74.9336 17.9441 75.3945 17.9441H76.502ZM83.0586 20.4871V12.7996H84.4766V21.7996H83.1934L83.0586 20.4871ZM78.9336 18.7V18.5769C78.9336 18.0964 78.9902 17.6589 79.1035 17.2644C79.2168 16.866 79.3809 16.5242 79.5957 16.239C79.8105 15.95 80.0723 15.7292 80.3809 15.5769C80.6895 15.4207 81.0371 15.3425 81.4238 15.3425C81.8066 15.3425 82.1426 15.4167 82.4316 15.5652C82.7207 15.7136 82.9668 15.9265 83.1699 16.2039C83.373 16.4773 83.5352 16.8054 83.6562 17.1882C83.7773 17.5671 83.8633 17.989 83.9141 18.4539V18.8464C83.8633 19.2996 83.7773 19.7136 83.6562 20.0886C83.5352 20.4636 83.373 20.7878 83.1699 21.0613C82.9668 21.3347 82.7188 21.5457 82.4258 21.6941C82.1367 21.8425 81.7988 21.9167 81.4121 21.9167C81.0293 21.9167 80.6836 21.8367 80.375 21.6765C80.0703 21.5164 79.8105 21.2917 79.5957 21.0027C79.3809 20.7136 79.2168 20.3738 79.1035 19.9832C78.9902 19.5886 78.9336 19.1609 78.9336 18.7ZM80.3457 18.5769V18.7C80.3457 18.989 80.3711 19.2585 80.4219 19.5085C80.4766 19.7585 80.5605 19.9792 80.6738 20.1707C80.7871 20.3582 80.9336 20.5066 81.1133 20.616C81.2969 20.7214 81.5156 20.7742 81.7695 20.7742C82.0898 20.7742 82.3535 20.7039 82.5605 20.5632C82.7676 20.4226 82.9297 20.2332 83.0469 19.9949C83.168 19.7527 83.25 19.4832 83.293 19.1863V18.1257C83.2695 17.8953 83.2207 17.6804 83.1465 17.4812C83.0762 17.282 82.9805 17.1082 82.8594 16.9597C82.7383 16.8074 82.5879 16.6902 82.4082 16.6082C82.2324 16.5222 82.0234 16.4792 81.7812 16.4792C81.5234 16.4792 81.3047 16.5339 81.125 16.6433C80.9453 16.7527 80.7969 16.9031 80.6797 17.0945C80.5664 17.2859 80.4824 17.5085 80.4277 17.7625C80.373 18.0164 80.3457 18.2878 80.3457 18.5769Z" fill="white"/>
</svg>
